<svg width="70" height="70" viewBox="0 0 70 70" fill="none" xmlns="http://www.w3.org/2000/svg">
<circle cx="35" cy="35" r="35" fill="#FFB800" fill-opacity="0.07"/>
<path d="M30.6667 34.35C30.6667 35.1842 31.3167 35.8667 32.1075 35.8667H33.7325C34.4259 35.8667 34.9892 35.2709 34.9892 34.545C34.9892 33.7542 34.6425 33.4725 34.1334 33.2884L31.5334 32.3784C31.0134 32.1942 30.6667 31.9125 30.6667 31.1217C30.6667 30.3959 31.23 29.8 31.9234 29.8H33.5484C34.35 29.8109 35 30.4825 35 31.3167M32.8334 35.9209V36.7225M32.8334 28.9442V29.7892" stroke="#FFB800" stroke-width="1.5" stroke-linecap="round" stroke-linejoin="round"/>
<path d="M36.0617 43.5366C37.0367 44.9125 38.6292 45.8116 40.4492 45.8116C43.4067 45.8116 45.8117 43.4066 45.8117 40.4491C45.8117 38.6508 44.9234 37.0583 43.5692 36.0833M32.8225 41.4783C35.1182 41.4783 37.3198 40.5663 38.9431 38.9431C40.5664 37.3198 41.4784 35.1181 41.4784 32.8225C41.4784 30.5268 40.5664 28.3251 38.9431 26.7019C37.3198 25.0786 35.1182 24.1666 32.8225 24.1666C30.5269 24.1666 28.3252 25.0786 26.7019 26.7019C25.0786 28.3251 24.1667 30.5268 24.1667 32.8225C24.1667 35.1181 25.0786 37.3198 26.7019 38.9431C28.3252 40.5663 30.5269 41.4783 32.8225 41.4783Z" stroke="#FFB800" stroke-width="1.5" stroke-linecap="round" stroke-linejoin="round"/>
</svg>
