<svg width="51" height="51" viewBox="0 0 51 51" fill="none" xmlns="http://www.w3.org/2000/svg">
<g id="Group 7">
<circle id="Oval 4" cx="25.5" cy="25.5" r="25.5" fill="#EB5757"/>
<g id="Group 221">
<path id="Vector" d="M35.9587 14.6851C36.0583 14.7464 36.14 14.8294 36.1965 14.9267C36.253 15.024 36.2827 15.1327 36.2828 15.243V25.3263C36.2828 25.4606 36.2391 25.5917 36.1574 25.7029C36.0757 25.8141 35.9597 25.9002 35.8244 25.9502L35.5528 25.3263L35.8244 25.9502L35.82 25.9515L35.8113 25.9555L35.7777 25.9676C35.5857 26.0379 35.3925 26.1051 35.1981 26.1693C34.8126 26.297 34.2768 26.4691 33.6695 26.6399C32.4782 26.9787 30.9263 27.343 29.7131 27.343C28.4765 27.343 27.4531 26.9666 26.5625 26.6372L26.5216 26.6237C25.596 26.2809 24.8076 25.9986 23.8733 25.9986C22.8513 25.9986 21.4819 26.3078 20.3154 26.6399C19.7931 26.7898 19.2756 26.9534 18.7635 27.1306V35.4097C18.7635 35.5879 18.6866 35.7589 18.5497 35.885C18.4128 36.0111 18.2271 36.0819 18.0335 36.0819C17.8399 36.0819 17.6542 36.0111 17.5173 35.885C17.3804 35.7589 17.3035 35.5879 17.3035 35.4097V15.243C17.3035 15.0647 17.3804 14.8938 17.5173 14.7677C17.6542 14.6416 17.8399 14.5708 18.0335 14.5708C18.2271 14.5708 18.4128 14.6416 18.5497 14.7677C18.6866 14.8938 18.7635 15.0647 18.7635 15.243V15.6222C19.0934 15.5159 19.4876 15.3936 19.9168 15.2726C21.1081 14.9365 22.6615 14.5708 23.8733 14.5708C25.0996 14.5708 26.0982 14.9432 26.9698 15.2686L27.0326 15.2928C27.9407 15.6302 28.732 15.9152 29.7131 15.9152C30.735 15.9152 32.1045 15.606 33.2709 15.2739C33.9357 15.0828 34.5926 14.8693 35.2404 14.634L35.2682 14.6246L35.274 14.6219H35.2755" fill="white"/>
</g>
</g>
</svg>
