<svg width="40" height="39" viewBox="0 0 40 39" fill="none" xmlns="http://www.w3.org/2000/svg">
<rect x="0.705688" y="0.0498047" width="38.5585" height="38.5585" rx="19.2793" fill="#7367F0" fill-opacity="0.16"/>
<path d="M17.0395 21.391C17.0395 22.5338 17.9231 23.4528 19.007 23.4528H21.222C22.1646 23.4528 22.9304 22.6516 22.9304 21.6502C22.9304 20.578 22.4591 20.1892 21.764 19.9418L18.2177 18.7047C17.5225 18.4573 17.0513 18.0803 17.0513 16.9964C17.0513 16.0067 17.8171 15.1937 18.7596 15.1937H20.9746C22.0585 15.1937 22.9422 16.1127 22.9422 17.2555M19.9849 14.0273V24.6309" stroke="#7F56D9" stroke-width="1.92793" stroke-linecap="round" stroke-linejoin="round"/>
<path d="M31.7667 19.3286C31.7667 25.8322 26.4884 31.1104 19.9849 31.1104C13.4814 31.1104 8.20312 25.8322 8.20312 19.3286C8.20312 12.8251 13.4814 7.54688 19.9849 7.54688" stroke="#7F56D9" stroke-width="1.92793" stroke-linecap="round" stroke-linejoin="round"/>
<path d="M25.8758 8.72505V13.4378M25.8758 13.4378H30.5885M25.8758 13.4378L31.7667 7.54688" stroke="#7F56D9" stroke-width="1.92793" stroke-linecap="round" stroke-linejoin="round"/>
</svg>
