<svg width="70" height="70" viewBox="0 0 70 70" fill="none" xmlns="http://www.w3.org/2000/svg">
<circle cx="35" cy="35" r="35" fill="#4CB8FF" fill-opacity="0.07"/>
<path d="M26.17 30.4399L35 35.5499L43.77 30.4699M35 44.6099V35.5399" stroke="#6CC4FE" stroke-width="1.5" stroke-linecap="round" stroke-linejoin="round"/>
<path d="M32.93 25.48L27.59 28.44C26.38 29.11 25.39 30.79 25.39 32.17V37.82C25.39 39.2 26.38 40.88 27.59 41.55L32.93 44.52C34.07 45.15 35.94 45.15 37.08 44.52L42.42 41.55C43.63 40.88 44.62 39.2 44.62 37.82V32.17C44.62 30.79 43.63 29.11 42.42 28.44L37.08 25.47C35.93 24.84 34.07 24.84 32.93 25.48Z" stroke="#6CC4FE" stroke-width="1.5" stroke-linecap="round" stroke-linejoin="round"/>
</svg>
