<svg width="70" height="70" viewBox="0 0 70 70" fill="none" xmlns="http://www.w3.org/2000/svg">
<circle cx="35" cy="35" r="35" fill="#4CB8FF" fill-opacity="0.07"/>
<path d="M37.13 34.339C37.2238 33.9687 37.2197 33.5803 37.1183 33.2119C37.0169 32.8435 36.8215 32.5078 36.5513 32.2377C36.2812 31.9675 35.9455 31.7721 35.5771 31.6707C35.2087 31.5693 34.8204 31.5653 34.45 31.659C33.68 31.849 33.05 32.479 32.86 33.249C32.7662 33.6194 32.7702 34.0078 32.8716 34.3762C32.9731 34.7445 33.1684 35.0802 33.4386 35.3504C33.7088 35.6206 34.0445 35.8159 34.4128 35.9174C34.7812 36.0188 35.1696 36.0228 35.54 35.929C36.32 35.739 36.95 35.109 37.13 34.339Z" fill="#6CC4FE"/>
<path d="M29.02 40.97C28.84 40.97 28.65 40.9 28.51 40.77C27.5496 39.8783 26.7832 38.7983 26.2585 37.5974C25.7338 36.3966 25.4619 35.1005 25.46 33.79C25.46 28.53 29.74 24.25 35 24.25C40.26 24.25 44.54 28.53 44.54 33.79C44.54 36.45 43.47 38.91 41.53 40.74C41.23 41.02 40.75 41.01 40.47 40.71C40.19 40.41 40.2 39.93 40.5 39.65C41.3048 38.9035 41.9461 37.9982 42.3833 36.9913C42.8205 35.9844 43.0441 34.8977 43.04 33.8C43.04 29.37 39.43 25.76 35 25.76C30.57 25.76 26.96 29.37 26.96 33.8C26.96 36.06 27.87 38.14 29.53 39.68C29.83 39.96 29.85 40.44 29.57 40.74C29.4243 40.8865 29.2265 40.9692 29.02 40.97Z" fill="#6CC4FE"/>
<path d="M39 38.2991C38.8541 38.299 38.7115 38.2561 38.5897 38.1757C38.468 38.0953 38.3725 37.981 38.315 37.8469C38.2575 37.7129 38.2406 37.5649 38.2664 37.4213C38.2922 37.2777 38.3595 37.1448 38.46 37.0391C39.29 36.1591 39.75 34.9991 39.75 33.7991C39.75 31.1791 37.62 29.0591 35.01 29.0591C33.7537 29.0617 32.5496 29.562 31.6613 30.4503C30.7729 31.3387 30.2727 32.5428 30.27 33.7991C30.27 35.0091 30.73 36.1591 31.56 37.0391C31.84 37.3391 31.83 37.8191 31.53 38.0991C31.23 38.3891 30.75 38.3691 30.47 38.0691C29.3798 36.9145 28.7717 35.3871 28.77 33.7991C28.77 30.3591 31.57 27.5591 35.01 27.5591C38.45 27.5591 41.25 30.3591 41.25 33.7991C41.25 35.3891 40.65 36.9091 39.55 38.0691C39.4044 38.2155 39.2066 38.2983 39 38.2991ZM33.3 39.6601L31.86 41.4501C30.72 42.8801 31.74 45.0001 33.56 45.0001H36.43C38.26 45.0001 39.28 42.8801 38.13 41.4601L36.69 39.6701C36.4886 39.4135 36.2317 39.2059 35.9385 39.0628C35.6454 38.9197 35.3236 38.8449 34.9974 38.8439C34.6712 38.843 34.3491 38.9159 34.0551 39.0573C33.7611 39.1986 33.503 39.4047 33.3 39.6601Z" fill="#6CC4FE"/>
</svg>
