<svg width="51" height="52" viewBox="0 0 51 52" fill="none" xmlns="http://www.w3.org/2000/svg">
<circle cx="25.5" cy="25.8013" r="25.5" fill="#FF993C"/>
<path d="M27.4463 16.2507L29.4263 20.2107C29.6963 20.762 30.4163 21.2907 31.0238 21.392L34.6125 21.9882C36.9075 22.3707 37.4475 24.0357 35.7938 25.6782L33.0038 28.4682C32.5313 28.9407 32.2725 29.852 32.4188 30.5045L33.2175 33.9582C33.8475 36.692 32.3963 37.7495 29.9775 36.3207L26.6138 34.3295C26.0063 33.9695 25.005 33.9695 24.3863 34.3295L21.0225 36.3207C18.615 37.7495 17.1525 36.6807 17.7825 33.9582L18.5813 30.5045C18.7275 29.852 18.4688 28.9407 17.9963 28.4682L15.2063 25.6782C13.5638 24.0357 14.0925 22.3707 16.3875 21.9882L19.9763 21.392C20.5725 21.2907 21.2925 20.762 21.5625 20.2107L23.5425 16.2507C24.6225 14.102 26.3775 14.102 27.4463 16.2507Z" fill="white" stroke="white" stroke-width="1.5" stroke-linecap="round" stroke-linejoin="round"/>
</svg>
