<svg width="47" height="46" viewBox="0 0 47 46" fill="none" xmlns="http://www.w3.org/2000/svg">
<g id="Iconsax/Linear/star1">
<path id="Vector" d="M26.8158 6.72756L30.1891 13.4742C30.6491 14.4134 31.8758 15.3142 32.9108 15.4867L39.025 16.5026C42.935 17.1542 43.8549 19.9909 41.0374 22.7892L36.2841 27.5426C35.4791 28.3476 35.0383 29.9001 35.2874 31.0117L36.6483 36.8959C37.7216 41.5534 35.2491 43.3551 31.1283 40.9209L25.3974 37.5284C24.3624 36.9151 22.6566 36.9151 21.6025 37.5284L15.8716 40.9209C11.7699 43.3551 9.27828 41.5342 10.3516 36.8959L11.7124 31.0117C11.9616 29.9001 11.5208 28.3476 10.7158 27.5426L5.96245 22.7892C3.16411 19.9909 4.06495 17.1542 7.97495 16.5026L14.0891 15.4867C15.1049 15.3142 16.3316 14.4134 16.7916 13.4742L20.165 6.72756C22.005 3.06673 24.9949 3.06673 26.8158 6.72756Z" fill="#FFB900" stroke="#FFB900" stroke-width="1.5" stroke-linecap="round" stroke-linejoin="round"/>
</g>
</svg>
