<svg width="85" height="82" viewBox="0 0 85 82" fill="none" xmlns="http://www.w3.org/2000/svg">
<g id="Group">
<g id="Group_2">
<path id="Vector" d="M60.307 64.638C57.8163 61.2113 55.8079 57.2705 53.6788 53.6376C52.6096 51.8005 51.737 51.4166 49.2654 51.4166L47.6504 51.3753V60.9511C47.6504 66.2181 48.3103 66.621 53.2156 67.1731V69.337H34.5305V67.1731C39.5436 66.6401 40.0735 66.2181 40.0735 60.9511V36.1169C40.0735 30.9324 39.4136 30.4089 34.5305 29.9584V27.7945H52.2828C57.6132 27.7945 60.8274 28.41 63.3815 30.1329C65.9611 31.8367 67.6871 34.6701 67.6871 38.6108C67.6871 44.2332 64.0066 47.3934 59.609 49.1892C60.6338 51.1278 63.2165 55.3287 65.1329 58.2446C67.4143 61.7158 68.7532 63.3942 70.0573 64.8696C70.1874 65.0124 70.3111 65.1456 70.4317 65.2726C76.1778 58.3715 79.633 49.497 79.633 39.8165C79.633 17.8284 61.8078 0 39.8165 0C17.8253 0 0 17.8253 0 39.8165C0 61.8078 17.8253 79.633 39.8165 79.633C50.249 79.633 59.7454 75.6162 66.8463 69.0515C63.5529 68.2804 61.8839 66.859 60.3038 64.6412L60.307 64.638Z" fill="#00DDAF"/>
<path id="Vector_2" d="M48.2977 30.9609C47.8059 31.3671 47.6567 32.0873 47.6567 33.5024V48.9099H49.8524C52.8032 48.9099 54.91 48.4403 56.3853 47.1807C58.6286 45.369 59.5677 42.8941 59.5677 39.569C59.5677 32.7726 55.4462 30.32 51.3976 30.32C49.6271 30.32 48.707 30.577 48.3008 30.9578L48.2977 30.9609Z" fill="#00DDAF"/>
</g>
<path id="Vector_3" d="M68.658 73.1509C66.8689 73.1509 65.4185 74.6012 65.4185 76.3904C65.4185 78.1795 66.8689 79.6299 68.658 79.6299C70.4472 79.6299 71.8975 78.1795 71.8975 76.3904C71.8975 74.6012 70.4472 73.1509 68.658 73.1509Z" fill="#00DDAF"/>
<path id="Vector_4" d="M84.3765 68.0361C84.3765 66.4643 83.1023 65.1901 81.5304 65.1901C79.9586 65.1901 78.6844 66.4643 78.6844 68.0361C78.6844 69.608 79.9586 70.8822 81.5304 70.8822C83.1023 70.8822 84.3765 69.608 84.3765 68.0361Z" fill="#00DDAF"/>
<path id="Vector_5" d="M84.183 77.9705C84.183 75.745 82.3789 73.9409 80.1534 73.9409C77.9279 73.9409 76.1238 75.745 76.1238 77.9705C76.1238 80.1959 77.9279 82 80.1534 82C82.3789 82 84.183 80.1959 84.183 77.9705Z" fill="#00DDAF"/>
</g>
</svg>
