<svg width="26" height="26" viewBox="0 0 26 26" fill="none" xmlns="http://www.w3.org/2000/svg">
<g id="Iconsax/Linear/keyboardopen">
<path id="Vector" d="M14.0346 10.32H17.7146M7.19458 16.11H17.7246M7.45458 24H17.4546M7.71458 4H17.1846C17.8346 4 18.4146 4.02 18.9346 4.09C21.7046 4.4 22.4546 5.7 22.4546 9.26V15.58C22.4546 19.14 21.7046 20.44 18.9346 20.75C18.4146 20.82 17.8446 20.84 17.1846 20.84H7.71458C7.06458 20.84 6.48458 20.82 5.96458 20.75C3.19458 20.44 2.44458 19.14 2.44458 15.58V9.26C2.44458 5.7 3.19458 4.4 5.96458 4.09C6.48458 4.02 7.06458 4 7.71458 4Z" stroke="#838E9E" stroke-width="1.5" stroke-linecap="round" stroke-linejoin="round"/>
<path id="Vector_2" d="M7.64954 10.3H7.65854M10.9495 10.3H10.9585" stroke="#838E9E" stroke-width="2" stroke-linecap="round" stroke-linejoin="round"/>
<circle id="Ellipse 4" cx="21.4546" cy="4" r="4" fill="#E64545"/>
</g>
</svg>
