<svg width="24" height="24" viewBox="0 0 24 24" fill="none" xmlns="http://www.w3.org/2000/svg">
<g id="Iconsax/Bold/activity">
<path id="Vector" d="M16.19 2H7.81C4.17 2 2 4.17 2 7.81V16.18C2 19.83 4.17 22 7.81 22H16.18C19.82 22 21.99 19.83 21.99 16.19V7.81C22 4.17 19.83 2 16.19 2ZM17.26 9.96L14.95 12.94C14.66 13.31 14.25 13.55 13.78 13.6C13.31 13.66 12.85 13.53 12.48 13.24L10.65 11.8C10.6244 11.7775 10.5939 11.7613 10.5609 11.7526C10.5279 11.7439 10.4934 11.743 10.46 11.75C10.42 11.75 10.35 11.77 10.29 11.85L7.91 14.94C7.76 15.13 7.54 15.23 7.32 15.23C7.16 15.23 7 15.18 6.86 15.07C6.78186 15.0103 6.71625 14.9357 6.66693 14.8506C6.6176 14.7655 6.58553 14.6715 6.57252 14.574C6.55952 14.4765 6.56586 14.3774 6.59116 14.2823C6.61646 14.1873 6.66024 14.0981 6.72 14.02L9.1 10.93C9.39 10.56 9.8 10.32 10.27 10.26C10.73 10.2 11.2 10.33 11.57 10.62L13.4 12.06C13.47 12.12 13.54 12.12 13.59 12.11C13.63 12.11 13.7 12.09 13.76 12.01L16.07 9.03C16.1297 8.95161 16.2045 8.88595 16.29 8.83686C16.3754 8.78777 16.4698 8.75624 16.5677 8.74413C16.6655 8.73202 16.7647 8.73957 16.8596 8.76634C16.9544 8.7931 17.043 8.83855 17.12 8.9C17.45 9.17 17.51 9.64 17.26 9.96Z" fill="white"/>
</g>
</svg>
