<svg width="24" height="24" viewBox="0 0 24 24" fill="none" xmlns="http://www.w3.org/2000/svg">
<g id="Iconsax/Linear/notification">
<path id="Vector" d="M12.02 2.91003C8.71 2.91003 6.02 5.60003 6.02 8.91003V11.8C6.02 12.41 5.76 13.34 5.45 13.86L4.3 15.77C3.59 16.95 4.08 18.26 5.38 18.7C9.69 20.14 14.34 20.14 18.65 18.7C19.86 18.3 20.39 16.87 19.73 15.77L18.58 13.86C18.28 13.34 18.02 12.41 18.02 11.8V8.91003C18.02 5.61003 15.32 2.91003 12.02 2.91003Z" stroke="#838E9E" stroke-width="1.5" stroke-miterlimit="10" stroke-linecap="round"/>
<path id="Vector_2" d="M13.87 3.19994C12.6607 2.85553 11.3793 2.85553 10.17 3.19994C10.46 2.45994 11.18 1.93994 12.02 1.93994C12.86 1.93994 13.58 2.45994 13.87 3.19994Z" stroke="#838E9E" stroke-width="1.5" stroke-miterlimit="10" stroke-linecap="round" stroke-linejoin="round"/>
<path id="Vector_3" d="M15.02 19.0601C15.02 20.7101 13.67 22.0601 12.02 22.0601C11.2 22.0601 10.44 21.7201 9.89999 21.1801C9.33815 20.6174 9.02178 19.8552 9.01999 19.0601" stroke="#838E9E" stroke-width="1.5" stroke-miterlimit="10"/>
</g>
</svg>
