<svg width="24" height="24" viewBox="0 0 24 24" fill="none" xmlns="http://www.w3.org/2000/svg">
<g id="Iconsax/Linear/profile">
<path id="Vector" d="M12.16 10.87C12.06 10.86 11.94 10.86 11.83 10.87C10.6822 10.831 9.59464 10.3468 8.79763 9.51995C8.00062 8.69307 7.55674 7.58844 7.56 6.43999C7.56 3.98999 9.54 1.99999 12 1.99999C12.5824 1.98948 13.1612 2.0938 13.7033 2.30697C14.2454 2.52014 14.7402 2.838 15.1595 3.2424C15.5787 3.6468 15.9142 4.12982 16.1468 4.66388C16.3794 5.19794 16.5045 5.77258 16.515 6.35499C16.5255 6.9374 16.4212 7.51618 16.208 8.05828C15.9948 8.60038 15.677 9.09518 15.2726 9.51444C14.8682 9.9337 14.3852 10.2692 13.8511 10.5018C13.3171 10.7344 12.7424 10.8595 12.16 10.87ZM7.16 14.56C4.74 16.18 4.74 18.82 7.16 20.43C9.91 22.27 14.42 22.27 17.17 20.43C19.59 18.81 19.59 16.17 17.17 14.56C14.43 12.73 9.92 12.73 7.16 14.56Z" stroke="#838E9E" stroke-width="1.5" stroke-linecap="round" stroke-linejoin="round"/>
</g>
</svg>
