<svg width="24" height="24" viewBox="0 0 24 24" fill="none" xmlns="http://www.w3.org/2000/svg">
<g id="Iconsax/Bold/box">
<path id="Vector" d="M20.208 7.82092L12.508 12.2809C12.198 12.4609 11.808 12.4609 11.488 12.2809L3.78801 7.82092C3.23801 7.50092 3.09801 6.75092 3.51801 6.28092C3.80801 5.95092 4.13801 5.68092 4.48801 5.49092L9.90801 2.49092C11.068 1.84092 12.948 1.84092 14.108 2.49092L19.528 5.49092C19.878 5.68092 20.208 5.96092 20.498 6.28092C20.898 6.75092 20.758 7.50092 20.208 7.82092ZM11.43 14.1389V20.9589C11.43 21.7189 10.66 22.2189 9.98001 21.8889C7.92001 20.8789 4.45001 18.9889 4.45001 18.9889C3.23001 18.2989 2.23001 16.5589 2.23001 15.1289V9.96892C2.23001 9.17892 3.06001 8.67892 3.74001 9.06892L10.93 13.2389C11.23 13.4289 11.43 13.7689 11.43 14.1389ZM12.57 14.1389V20.9589C12.57 21.7189 13.34 22.2189 14.02 21.8889C16.08 20.8789 19.55 18.9889 19.55 18.9889C20.77 18.2989 21.77 16.5589 21.77 15.1289V9.96892C21.77 9.17892 20.94 8.67892 20.26 9.06892L13.07 13.2389C12.77 13.4289 12.57 13.7689 12.57 14.1389Z" fill="white"/>
</g>
</svg>
