<svg width="24" height="24" viewBox="0 0 24 24" fill="none" xmlns="http://www.w3.org/2000/svg">
<g id="Iconsax/Bold/moneyrecive">
<path id="Vector" d="M18.809 6.24963H20.169C19.979 5.97963 19.779 5.72963 19.569 5.47963L18.809 6.24963ZM18.52 4.41963C18.27 4.20963 18.02 4.00963 17.75 3.81963V5.17963L18.52 4.41963ZM19.58 5.48063L22.53 2.53063C22.82 2.24063 22.82 1.76063 22.53 1.47063C22.3889 1.33115 22.1984 1.25293 22 1.25293C21.8016 1.25293 21.6111 1.33115 21.47 1.47063L18.52 4.41963C18.9 4.74963 19.25 5.11063 19.58 5.48063ZM17.752 2.99963C17.752 2.58963 17.412 2.24963 17.002 2.24963C16.602 2.24963 16.282 2.56963 16.262 2.95963C16.782 3.20963 17.282 3.48963 17.752 3.81963V2.99963ZM21.752 6.99963C21.752 6.58963 21.412 6.24963 21.002 6.24963H20.172C20.502 6.71963 20.792 7.21963 21.032 7.73963C21.432 7.71963 21.752 7.39963 21.752 6.99963ZM12.75 14.7496H13.05C13.44 14.7496 13.75 14.3996 13.75 13.9696C13.75 13.4296 13.6 13.3496 13.26 13.2296L12.75 13.0496V14.7496Z" fill="white"/>
<path id="Vector_2" d="M21.04 7.74C21.03 7.74 21.02 7.75 21 7.75H17C16.9 7.75 16.81 7.73 16.71 7.69C16.5258 7.61092 16.3791 7.46416 16.3 7.28C16.2681 7.19005 16.2512 7.09545 16.25 7V3C16.25 2.99 16.26 2.98 16.26 2.96C14.96 2.35 13.52 2 12 2C6.48 2 2 6.48 2 12C2 17.52 6.48 22 12 22C17.52 22 22 17.52 22 12C22 10.48 21.65 9.04 21.04 7.74ZM13.75 11.82C14.39 12.04 15.25 12.51 15.25 13.98C15.25 15.23 14.26 16.26 13.05 16.26H12.75V16.51C12.75 16.92 12.41 17.26 12 17.26C11.59 17.26 11.25 16.92 11.25 16.51V16.26H11.17C9.84 16.26 8.75 15.14 8.75 13.76C8.75 13.34 9.09 13 9.5 13C9.91 13 10.25 13.34 10.25 13.75C10.25 14.3 10.66 14.75 11.17 14.75H11.25V12.53L10.25 12.18C9.61 11.96 8.75 11.49 8.75 10.02C8.75 8.77 9.74 7.74 10.95 7.74H11.25V7.5C11.25 7.09 11.59 6.75 12 6.75C12.41 6.75 12.75 7.09 12.75 7.5V7.75H12.83C14.16 7.75 15.25 8.87 15.25 10.25C15.25 10.66 14.91 11 14.5 11C14.09 11 13.75 10.66 13.75 10.25C13.75 9.7 13.34 9.25 12.83 9.25H12.75V11.47L13.75 11.82Z" fill="white"/>
<path id="Vector_3" d="M10.25 10.03C10.25 10.57 10.4 10.65 10.74 10.77L11.25 10.95V9.25H10.95C10.57 9.25 10.25 9.6 10.25 10.03Z" fill="white"/>
</g>
</svg>
