<svg width="24" height="24" viewBox="0 0 24 24" fill="none" xmlns="http://www.w3.org/2000/svg">
<g id="Iconsax/Bold/notification">
<path id="Vector" d="M19.34 14.4902L18.34 12.8302C18.13 12.4602 17.94 11.7602 17.94 11.3502V8.82016C17.9388 7.70419 17.6217 6.61137 17.0253 5.66813C16.4289 4.72489 15.5776 3.96978 14.57 3.49016C14.3128 3.0335 13.9377 2.6543 13.4838 2.3922C13.03 2.13009 12.5141 1.99469 11.99 2.00016C10.9 2.00016 9.92 2.59016 9.4 3.52016C7.45 4.49016 6.1 6.50016 6.1 8.82016V11.3502C6.1 11.7602 5.91 12.4602 5.7 12.8202L4.69 14.4902C4.29 15.1602 4.2 15.9002 4.45 16.5802C4.69 17.2502 5.26 17.7702 6 18.0202C7.94 18.6802 9.98 19.0002 12.02 19.0002C14.06 19.0002 16.1 18.6802 18.04 18.0302C18.74 17.8002 19.28 17.2702 19.54 16.5802C19.8 15.8902 19.73 15.1302 19.34 14.4902ZM14.83 20.0102C14.6197 20.5923 14.2353 21.0956 13.729 21.4516C13.2226 21.8077 12.619 21.9992 12 22.0002C11.21 22.0002 10.43 21.6802 9.88 21.1102C9.56 20.8102 9.32 20.4102 9.18 20.0002C9.31 20.0202 9.44 20.0302 9.58 20.0502C9.81 20.0802 10.05 20.1102 10.29 20.1302C10.86 20.1802 11.44 20.2102 12.02 20.2102C12.59 20.2102 13.16 20.1802 13.72 20.1302C13.93 20.1102 14.14 20.1002 14.34 20.0702L14.83 20.0102Z" fill="white"/>
</g>
</svg>
