<svg width="80" height="80" viewBox="0 0 80 80" fill="none" xmlns="http://www.w3.org/2000/svg">
<g id="Frame 1000001187">
<rect width="80" height="80" rx="8" fill="#00DDAF"/>
<path id="Vector" d="M49.5999 32.4211V52.6316C49.5999 53.5249 49.2628 54.3817 48.6627 55.0134C48.0626 55.6451 47.2486 56 46.3999 56H24C22.9494 56 21.9091 55.7822 20.9385 55.359C19.9679 54.9358 19.086 54.3155 18.3431 53.5335C16.8429 51.9543 16 49.8123 16 47.5789V27.3684C16 26.4751 16.3371 25.6183 16.9373 24.9866C17.5374 24.3549 18.3513 24 19.2 24H41.5999C43.7217 24 45.7565 24.8872 47.2568 26.4665C48.7571 28.0457 49.5999 30.1877 49.5999 32.4211ZM63.1999 28.4421C62.9588 28.2878 62.6821 28.2062 62.3999 28.2062C62.1177 28.2062 61.841 28.2878 61.5999 28.4421L53.5999 33.2421C53.3546 33.3912 53.1512 33.6062 53.0107 33.8651C52.8701 34.124 52.7974 34.4176 52.7999 34.7158V45.2842C52.7974 45.5824 52.8701 45.876 53.0107 46.1349C53.1512 46.3938 53.3546 46.6088 53.5999 46.7579L61.5999 51.5579C61.8437 51.7051 62.1189 51.7848 62.3999 51.7895C62.6813 51.7877 62.9572 51.7078 63.1999 51.5579C63.4451 51.4139 63.6488 51.203 63.7896 50.9473C63.9304 50.6917 64.0031 50.4008 63.9999 50.1053V29.8947C64.0031 29.5992 63.9304 29.3083 63.7896 29.0527C63.6488 28.797 63.4451 28.5861 63.1999 28.4421Z" fill="white" fill-opacity="0.8"/>
</g>
</svg>
