<svg width="80" height="80" viewBox="0 0 80 80" fill="none" xmlns="http://www.w3.org/2000/svg">
<g id="Frame 1000001187">
<rect width="80" height="80" rx="8" fill="#00DDAF"/>
<path id="Vector" fill-rule="evenodd" clip-rule="evenodd" d="M40.5 64C46.7326 64 52.7099 61.5241 57.117 57.117C61.5241 52.7099 64 46.7326 64 40.5C64 34.2674 61.5241 28.2901 57.117 23.883C52.7099 19.4759 46.7326 17 40.5 17C34.2674 17 28.2901 19.4759 23.883 23.883C19.4759 28.2901 17 34.2674 17 40.5C17 46.7326 19.4759 52.7099 23.883 57.117C28.2901 61.5241 34.2674 64 40.5 64ZM31.4731 31.6581C30.6359 32.9183 30.2188 34.1638 30.2188 35.3888C30.2188 35.9851 30.4831 36.5403 31.0119 37.0514C31.5406 37.5625 32.1869 37.8151 32.9536 37.8151C34.2549 37.8151 35.1391 37.0866 35.6061 35.6238C36.0996 34.2284 36.7018 33.1709 37.4156 32.4513C38.1294 31.7345 39.2369 31.3761 40.7467 31.3761C42.0363 31.3761 43.0879 31.7286 43.9046 32.4424C44.7183 33.1533 45.1266 34.0287 45.1266 35.0627C45.1301 35.5814 44.992 36.0913 44.7271 36.5373C44.4577 36.992 44.1254 37.4064 43.7401 37.7681C43.122 38.3333 42.4872 38.8799 41.8366 39.4072C40.8378 40.2356 40.0417 40.9494 39.4513 41.5516C38.8638 42.1538 38.3879 42.8529 38.0325 43.6461C37.0866 47.3032 41.9981 47.597 43.132 44.9856C43.2701 44.7329 43.4786 44.4568 43.7577 44.1513C44.0397 43.8487 44.4128 43.4963 44.8798 43.0938C46.0683 42.1039 47.2376 41.0912 48.3872 40.0564C49.0364 39.4572 49.5974 38.7404 50.0704 37.9121C50.5579 37.028 50.8031 36.0309 50.7812 35.0216C50.7812 33.6263 50.3671 32.3337 49.5358 31.1441C48.7074 29.9514 47.5324 29.0114 46.0108 28.3182C44.4891 27.6279 42.7354 27.2812 40.7467 27.2812C38.6082 27.2812 36.7371 27.6925 35.1332 28.5238C33.5293 29.3522 32.3102 30.3979 31.4731 31.6581ZM37.7593 52.4556C37.7593 53.2347 38.0688 53.9819 38.6197 54.5328C39.1706 55.0836 39.9177 55.3931 40.6968 55.3931C41.4759 55.3931 42.2231 55.0836 42.7739 54.5328C43.3248 53.9819 43.6343 53.2347 43.6343 52.4556C43.6343 51.6766 43.3248 50.9294 42.7739 50.3785C42.2231 49.8276 41.4759 49.5181 40.6968 49.5181C39.9177 49.5181 39.1706 49.8276 38.6197 50.3785C38.0688 50.9294 37.7593 51.6766 37.7593 52.4556Z" fill="white" fill-opacity="0.8"/>
</g>
</svg>
